<svg width="4981" height="5142" viewBox="0 0 4981 5142" fill="none" xmlns="http://www.w3.org/2000/svg">
<path d="M2490.16 199L2381.75 532.681L2548.58 586.891L2490.16 199Z" fill="#FFCC00"/>
<path d="M2490.16 199L2598.57 532.681L2431.75 586.891L2490.16 199Z" fill="#FFCC00"/>
<path d="M2823.82 441.434L2473 441.441L2472.99 616.861L2823.82 441.434Z" fill="#FFCC00"/>
<path d="M2823.82 441.431L2539.99 647.66L2436.89 505.74L2823.82 441.431Z" fill="#FFCC00"/>
<path d="M2696.37 833.698L2587.96 500.018L2421.13 554.23L2696.37 833.698Z" fill="#FFCC00"/>
<path d="M2696.37 833.699L2412.55 627.475L2515.66 485.55L2696.37 833.699Z" fill="#FFCC00"/>
<path d="M2156.51 441.434L2507.33 441.44L2507.33 616.861L2156.51 441.434Z" fill="#FFCC00"/>
<path d="M2156.51 441.431L2440.33 647.66L2543.44 505.74L2156.51 441.431Z" fill="#FFCC00"/>
<path d="M2283.95 833.697L2392.36 500.018L2559.19 554.23L2283.95 833.697Z" fill="#FFCC00"/>
<path d="M2283.95 833.699L2567.78 627.475L2464.67 485.55L2283.95 833.699Z" fill="#FFCC00"/>
<path d="M2490.16 4409.23L2381.75 4742.92L2548.58 4797.13L2490.16 4409.23Z" fill="#FFCC00"/>
<path d="M2490.16 4409.23L2598.57 4742.92L2431.75 4797.13L2490.16 4409.23Z" fill="#FFCC00"/>
<path d="M2823.82 4651.67L2473 4651.67L2472.99 4827.09L2823.82 4651.67Z" fill="#FFCC00"/>
<path d="M2823.82 4651.66L2539.99 4857.89L2436.89 4715.97L2823.82 4651.66Z" fill="#FFCC00"/>
<path d="M2696.37 5043.93L2587.96 4710.25L2421.13 4764.46L2696.37 5043.93Z" fill="#FFCC00"/>
<path d="M2696.37 5043.93L2412.55 4837.71L2515.66 4695.78L2696.37 5043.93Z" fill="#FFCC00"/>
<path d="M2156.51 4651.67L2507.33 4651.67L2507.33 4827.09L2156.51 4651.67Z" fill="#FFCC00"/>
<path d="M2156.51 4651.66L2440.33 4857.89L2543.44 4715.97L2156.51 4651.66Z" fill="#FFCC00"/>
<path d="M2283.95 5043.93L2392.36 4710.25L2559.19 4764.46L2283.95 5043.93Z" fill="#FFCC00"/>
<path d="M2283.95 5043.93L2567.78 4837.71L2464.67 4695.78L2283.95 5043.93Z" fill="#FFCC00"/>
<path d="M385.207 2304.12L276.796 2637.8L443.623 2692.01L385.207 2304.12Z" fill="#FFCC00"/>
<path d="M385.207 2304.12L493.618 2637.8L326.79 2692.01L385.207 2304.12Z" fill="#FFCC00"/>
<path d="M718.863 2546.55L368.04 2546.56L368.036 2721.98L718.863 2546.55Z" fill="#FFCC00"/>
<path d="M718.863 2546.55L435.035 2752.78L331.933 2610.86L718.863 2546.55Z" fill="#FFCC00"/>
<path d="M591.417 2938.81L483.008 2605.13L316.178 2659.35L591.417 2938.81Z" fill="#FFCC00"/>
<path d="M591.415 2938.82L307.592 2732.59L410.699 2590.67L591.415 2938.82Z" fill="#FFCC00"/>
<path d="M51.5513 2546.55L402.374 2546.56L402.377 2721.98L51.5513 2546.55Z" fill="#FFCC00"/>
<path d="M51.5513 2546.55L335.378 2752.78L438.481 2610.86L51.5513 2546.55Z" fill="#FFCC00"/>
<path d="M178.996 2938.81L287.405 2605.13L454.235 2659.35L178.996 2938.81Z" fill="#FFCC00"/>
<path d="M178.998 2938.82L462.82 2732.59L359.713 2590.67L178.998 2938.82Z" fill="#FFCC00"/>
<path d="M1231.48 1115.73L1515.3 909.507L1412.19 767.582L1231.48 1115.73Z" fill="#FFCC00"/>
<path d="M1231.47 1115.73L1339.88 782.05L1506.71 836.261L1231.47 1115.73Z" fill="#FFCC00"/>
<path d="M1104.03 723.464L1387.86 929.692L1490.96 787.771L1104.03 723.464Z" fill="#FFCC00"/>
<path d="M1104.03 723.465L1454.85 723.469L1454.86 898.892L1104.03 723.465Z" fill="#FFCC00"/>
<path d="M1437.68 481.032L1329.27 814.711L1496.1 868.922L1437.68 481.032Z" fill="#FFCC00"/>
<path d="M1437.68 481.032L1546.1 814.714L1379.27 868.922L1437.68 481.032Z" fill="#FFCC00"/>
<path d="M1643.9 1115.73L1360.07 909.502L1463.17 767.581L1643.9 1115.73Z" fill="#FFCC00"/>
<path d="M1643.9 1115.73L1535.48 782.05L1368.66 836.258L1643.9 1115.73Z" fill="#FFCC00"/>
<path d="M1771.34 723.466L1487.52 929.691L1384.41 787.766L1771.34 723.466Z" fill="#FFCC00"/>
<path d="M1771.34 723.468L1420.51 723.465L1420.52 898.889L1771.34 723.468Z" fill="#FFCC00"/>
<path d="M873.428 1886.26L765.019 1552.58L598.189 1606.79L873.428 1886.26Z" fill="#FFCC00"/>
<path d="M873.426 1886.26L589.604 1680.03L692.711 1538.11L873.426 1886.26Z" fill="#FFCC00"/>
<path d="M461.005 1886.26L744.831 1680.03L641.728 1538.11L461.005 1886.26Z" fill="#FFCC00"/>
<path d="M461.007 1886.26L569.421 1552.58L736.246 1606.78L461.007 1886.26Z" fill="#FFCC00"/>
<path d="M333.563 1493.99L617.386 1700.22L720.493 1558.29L333.563 1493.99Z" fill="#FFCC00"/>
<path d="M333.564 1494L684.389 1493.99L684.388 1669.42L333.564 1494Z" fill="#FFCC00"/>
<path d="M1000.87 1493.99L717.048 1700.22L613.944 1558.3L1000.87 1493.99Z" fill="#FFCC00"/>
<path d="M1000.87 1493.99L650.049 1494L650.047 1669.42L1000.87 1493.99Z" fill="#FFCC00"/>
<path d="M667.22 1251.56L775.629 1585.24L608.799 1639.45L667.22 1251.56Z" fill="#FFCC00"/>
<path d="M667.22 1251.56L558.807 1585.24L725.632 1639.45L667.22 1251.56Z" fill="#FFCC00"/>
<path d="M1000.87 3599.11L650.051 3599.12L650.047 3774.53L1000.87 3599.11Z" fill="#FFCC00"/>
<path d="M1000.87 3599.1L717.045 3805.33L613.943 3663.42L1000.87 3599.1Z" fill="#FFCC00"/>
<path d="M873.428 3991.37L765.023 3657.69L598.189 3711.91L873.428 3991.37Z" fill="#FFCC00"/>
<path d="M873.423 3991.37L589.603 3785.15L692.713 3643.22L873.423 3991.37Z" fill="#FFCC00"/>
<path d="M461.006 3991.37L744.833 3785.14L641.731 3643.22L461.006 3991.37Z" fill="#FFCC00"/>
<path d="M461.009 3991.38L569.424 3657.69L736.248 3711.9L461.009 3991.38Z" fill="#FFCC00"/>
<path d="M667.223 3356.67L775.629 3690.35L608.795 3744.57L667.223 3356.67Z" fill="#FFCC00"/>
<path d="M667.223 3356.67L558.806 3690.36L725.628 3744.57L667.223 3356.67Z" fill="#FFCC00"/>
<path d="M333.564 3599.11L684.388 3599.11L684.386 3774.53L333.564 3599.11Z" fill="#FFCC00"/>
<path d="M333.562 3599.11L617.385 3805.33L720.492 3663.41L333.562 3599.11Z" fill="#FFCC00"/>
<path d="M1771.34 4369.63L1420.52 4369.64L1420.51 4545.06L1771.34 4369.63Z" fill="#FFCC00"/>
<path d="M1771.34 4369.63L1487.51 4575.86L1384.41 4433.94L1771.34 4369.63Z" fill="#FFCC00"/>
<path d="M1643.9 4761.9L1535.49 4428.22L1368.66 4482.43L1643.9 4761.9Z" fill="#FFCC00"/>
<path d="M1643.89 4761.9L1360.07 4555.68L1463.18 4413.75L1643.89 4761.9Z" fill="#FFCC00"/>
<path d="M1231.47 4761.9L1515.3 4555.67L1412.2 4413.75L1231.47 4761.9Z" fill="#FFCC00"/>
<path d="M1231.47 4761.9L1339.89 4428.22L1506.71 4482.43L1231.47 4761.9Z" fill="#FFCC00"/>
<path d="M1437.69 4127.2L1546.1 4460.88L1379.26 4515.09L1437.69 4127.2Z" fill="#FFCC00"/>
<path d="M1437.69 4127.2L1329.27 4460.89L1496.1 4515.09L1437.69 4127.2Z" fill="#FFCC00"/>
<path d="M1104.03 4369.64L1454.86 4369.63L1454.85 4545.06L1104.03 4369.64Z" fill="#FFCC00"/>
<path d="M1104.03 4369.64L1387.85 4575.86L1490.96 4433.94L1104.03 4369.64Z" fill="#FFCC00"/>
<path d="M4595.12 2304.12L4703.53 2637.8L4536.71 2692.01L4595.12 2304.12Z" fill="#FFCC00"/>
<path d="M4595.12 2304.12L4486.71 2637.8L4653.54 2692.01L4595.12 2304.12Z" fill="#FFCC00"/>
<path d="M4261.47 2546.55L4612.29 2546.56L4612.29 2721.98L4261.47 2546.55Z" fill="#FFCC00"/>
<path d="M4261.47 2546.55L4545.29 2752.78L4648.4 2610.86L4261.47 2546.55Z" fill="#FFCC00"/>
<path d="M4388.91 2938.81L4497.32 2605.14L4664.15 2659.35L4388.91 2938.81Z" fill="#FFCC00"/>
<path d="M4388.91 2938.82L4672.74 2732.59L4569.63 2590.67L4388.91 2938.82Z" fill="#FFCC00"/>
<path d="M4928.78 2546.55L4577.95 2546.56L4577.95 2721.98L4928.78 2546.55Z" fill="#FFCC00"/>
<path d="M4928.78 2546.55L4644.95 2752.78L4541.85 2610.86L4928.78 2546.55Z" fill="#FFCC00"/>
<path d="M4801.33 2938.81L4692.92 2605.14L4526.09 2659.35L4801.33 2938.81Z" fill="#FFCC00"/>
<path d="M4801.33 2938.82L4517.51 2732.59L4620.62 2590.67L4801.33 2938.82Z" fill="#FFCC00"/>
<path fill-rule="evenodd" clip-rule="evenodd" d="M3872.78 1170.92C3872.78 1243.63 3833.22 1310.2 3771.31 1345.99V1427.05C3771.31 1492.78 3733.83 1552.62 3675.41 1581.92C3675.41 1759.08 3373.57 1751.59 3373.57 1581.94C3315.12 1552.64 3277.63 1492.81 3277.63 1427.05V1343.34C3217.07 1314.12 3176.14 1261.99 3176.14 1170.92C3176.14 847.236 2977 851.153 2977 547.428C2977 245.126 3222.11 0 3524.49 0C3826.81 0 4072 245.099 4072 547.428C4072 850.911 3872.78 846.404 3872.78 1170.92ZM3713.59 1368.34C3622.65 1388.06 3362.73 1370.27 3335.35 1363.54V1427.05C3335.35 1601.45 3713.59 1592.17 3713.59 1427.05V1368.34ZM3617.52 1599.14C3551.21 1602.82 3498.99 1606.84 3431.45 1599.14C3437.11 1666.51 3611.4 1674.48 3617.52 1599.14Z" fill="#FFCC00"/>
<path d="M4106.9 1886.26L4215.31 1552.58L4382.14 1606.79L4106.9 1886.26Z" fill="#FFCC00"/>
<path d="M4106.9 1886.26L4390.73 1680.03L4287.62 1538.11L4106.9 1886.26Z" fill="#FFCC00"/>
<path d="M4519.32 1886.26L4235.5 1680.03L4338.6 1538.11L4519.32 1886.26Z" fill="#FFCC00"/>
<path d="M4519.32 1886.26L4410.91 1552.58L4244.08 1606.78L4519.32 1886.26Z" fill="#FFCC00"/>
<path d="M4646.77 1493.99L4362.94 1700.22L4259.84 1558.29L4646.77 1493.99Z" fill="#FFCC00"/>
<path d="M4646.77 1493.99L4295.94 1493.99L4295.94 1669.42L4646.77 1493.99Z" fill="#FFCC00"/>
<path d="M3979.46 1493.99L4263.28 1700.22L4366.38 1558.3L3979.46 1493.99Z" fill="#FFCC00"/>
<path d="M3979.46 1493.99L4330.28 1494L4330.28 1669.42L3979.46 1493.99Z" fill="#FFCC00"/>
<path d="M4313.11 1251.56L4204.7 1585.24L4371.53 1639.45L4313.11 1251.56Z" fill="#FFCC00"/>
<path d="M4313.11 1251.56L4421.52 1585.24L4254.7 1639.45L4313.11 1251.56Z" fill="#FFCC00"/>
<path d="M3979.46 3599.11L4330.28 3599.12L4330.28 3774.53L3979.46 3599.11Z" fill="#FFCC00"/>
<path d="M3979.46 3599.1L4263.28 3805.33L4366.39 3663.42L3979.46 3599.1Z" fill="#FFCC00"/>
<path d="M4106.9 3991.37L4215.31 3657.69L4382.14 3711.91L4106.9 3991.37Z" fill="#FFCC00"/>
<path d="M4106.91 3991.37L4390.72 3785.15L4287.61 3643.23L4106.91 3991.37Z" fill="#FFCC00"/>
<path d="M4519.32 3991.37L4235.5 3785.14L4338.6 3643.23L4519.32 3991.37Z" fill="#FFCC00"/>
<path d="M4519.32 3991.38L4410.91 3657.69L4244.08 3711.9L4519.32 3991.38Z" fill="#FFCC00"/>
<path d="M4313.11 3356.68L4204.7 3690.35L4371.53 3744.57L4313.11 3356.68Z" fill="#FFCC00"/>
<path d="M4313.11 3356.68L4421.52 3690.36L4254.7 3744.57L4313.11 3356.68Z" fill="#FFCC00"/>
<path d="M4646.76 3599.11L4295.94 3599.11L4295.94 3774.53L4646.76 3599.11Z" fill="#FFCC00"/>
<path d="M4646.77 3599.11L4362.94 3805.33L4259.84 3663.41L4646.77 3599.11Z" fill="#FFCC00"/>
<path d="M3208.99 4369.64L3559.81 4369.64L3559.81 4545.06L3208.99 4369.64Z" fill="#FFCC00"/>
<path d="M3208.99 4369.63L3492.82 4575.86L3595.92 4433.94L3208.99 4369.63Z" fill="#FFCC00"/>
<path d="M3336.43 4761.9L3444.84 4428.22L3611.67 4482.43L3336.43 4761.9Z" fill="#FFCC00"/>
<path d="M3336.44 4761.9L3620.26 4555.68L3517.15 4413.75L3336.44 4761.9Z" fill="#FFCC00"/>
<path d="M3748.86 4761.9L3465.03 4555.67L3568.13 4413.75L3748.86 4761.9Z" fill="#FFCC00"/>
<path d="M3748.85 4761.9L3640.44 4428.22L3473.62 4482.43L3748.85 4761.9Z" fill="#FFCC00"/>
<path d="M3542.64 4127.2L3434.23 4460.88L3601.07 4515.09L3542.64 4127.2Z" fill="#FFCC00"/>
<path d="M3542.64 4127.2L3651.06 4460.89L3484.23 4515.09L3542.64 4127.2Z" fill="#FFCC00"/>
<path d="M3876.3 4369.64L3525.47 4369.64L3525.48 4545.06L3876.3 4369.64Z" fill="#FFCC00"/>
<path d="M3876.3 4369.64L3592.48 4575.86L3489.37 4433.94L3876.3 4369.64Z" fill="#FFCC00"/>
</svg>
